# xmcd CD database file
#
# Track frame offsets:
#	150
#	18841
#	45683
#	69831
#	96508
#	114936
#	132212
#	145773
#	160448
#	192805
#	207404
#	218756
#
# Disc length: 3132 seconds
#
# Revision: 0
# Processed by: cddbd v1.5.1PL2 Copyright (c) Steve Scherf et al.
# Submitted via: CDex 1.51
#
DISCID=a60c3a0c
DTITLE=Larry Goldings - Quartet
DYEAR=2006
DGENRE=Jazz
TTITLE0=Singsong
TTITLE1=Au Bord De L'Eau
TTITLE2=Valsinha
TTITLE3=The Wedding
TTITLE4=Hesitation Blues
TTITLE5=Jackie-ing
TTITLE6=Dario And Bario
TTITLE7=A Dream About Jaki Byard
TTITLE8=Cocoon
TTITLE9=Hidalgo
TTITLE10=Denouement
TTITLE11=We Shall Overcome
EXTD=YEAR: 2006
EXTT0=
EXTT1=
EXTT2=
EXTT3=
EXTT4=
EXTT5=
EXTT6=
EXTT7=
EXTT8=
EXTT9=
EXTT10=
EXTT11=
PLAYORDER=
